G04*
G04 #@! TF.GenerationSoftware,Altium Limited,Altium Designer,24.9.1 (31)*
G04*
G04 Layer_Physical_Order=1*
G04 Layer_Color=255*
%FSLAX25Y25*%
%MOIN*%
G70*
G04*
G04 #@! TF.SameCoordinates,25C74C4A-671D-483D-B12C-01953B9F8915*
G04*
G04*
G04 #@! TF.FilePolarity,Positive*
G04*
G01*
G75*
%ADD12C,0.01000*%
%ADD26R,0.04724X0.04724*%
%ADD27R,0.03150X0.01575*%
%ADD28R,0.01575X0.03150*%
%ADD29R,0.03150X0.03150*%
%ADD30R,0.04528X0.02362*%
%ADD31R,0.04528X0.01181*%
%ADD32R,0.03583X0.04803*%
%ADD33R,0.02362X0.02756*%
%ADD34R,0.02756X0.02362*%
%ADD35R,0.01378X0.02362*%
%ADD36R,0.02362X0.01378*%
G04:AMPARAMS|DCode=37|XSize=35.43mil|YSize=68.9mil|CornerRadius=1.95mil|HoleSize=0mil|Usage=FLASHONLY|Rotation=90.000|XOffset=0mil|YOffset=0mil|HoleType=Round|Shape=RoundedRectangle|*
%AMROUNDEDRECTD37*
21,1,0.03543,0.06500,0,0,90.0*
21,1,0.03154,0.06890,0,0,90.0*
1,1,0.00390,0.03250,0.01577*
1,1,0.00390,0.03250,-0.01577*
1,1,0.00390,-0.03250,-0.01577*
1,1,0.00390,-0.03250,0.01577*
%
%ADD37ROUNDEDRECTD37*%
G04:AMPARAMS|DCode=38|XSize=125.98mil|YSize=68.9mil|CornerRadius=2.07mil|HoleSize=0mil|Usage=FLASHONLY|Rotation=90.000|XOffset=0mil|YOffset=0mil|HoleType=Round|Shape=RoundedRectangle|*
%AMROUNDEDRECTD38*
21,1,0.12598,0.06476,0,0,90.0*
21,1,0.12185,0.06890,0,0,90.0*
1,1,0.00413,0.03238,0.06093*
1,1,0.00413,0.03238,-0.06093*
1,1,0.00413,-0.03238,-0.06093*
1,1,0.00413,-0.03238,0.06093*
%
%ADD38ROUNDEDRECTD38*%
G04:AMPARAMS|DCode=39|XSize=9.84mil|YSize=23.62mil|CornerRadius=1.97mil|HoleSize=0mil|Usage=FLASHONLY|Rotation=180.000|XOffset=0mil|YOffset=0mil|HoleType=Round|Shape=RoundedRectangle|*
%AMROUNDEDRECTD39*
21,1,0.00984,0.01968,0,0,180.0*
21,1,0.00591,0.02362,0,0,180.0*
1,1,0.00394,-0.00295,0.00984*
1,1,0.00394,0.00295,0.00984*
1,1,0.00394,0.00295,-0.00984*
1,1,0.00394,-0.00295,-0.00984*
%
%ADD39ROUNDEDRECTD39*%
G04:AMPARAMS|DCode=40|XSize=25.2mil|YSize=28.35mil|CornerRadius=3.15mil|HoleSize=0mil|Usage=FLASHONLY|Rotation=90.000|XOffset=0mil|YOffset=0mil|HoleType=Round|Shape=RoundedRectangle|*
%AMROUNDEDRECTD40*
21,1,0.02520,0.02205,0,0,90.0*
21,1,0.01890,0.02835,0,0,90.0*
1,1,0.00630,0.01102,0.00945*
1,1,0.00630,0.01102,-0.00945*
1,1,0.00630,-0.01102,-0.00945*
1,1,0.00630,-0.01102,0.00945*
%
%ADD40ROUNDEDRECTD40*%
%ADD41R,0.04166X0.03591*%
%ADD42R,0.02126X0.02362*%
%ADD43R,0.00984X0.02756*%
%ADD44R,0.00984X0.03150*%
%ADD45R,0.06102X0.05118*%
%ADD46R,0.02362X0.02126*%
G04:AMPARAMS|DCode=47|XSize=25.2mil|YSize=28.35mil|CornerRadius=3.15mil|HoleSize=0mil|Usage=FLASHONLY|Rotation=180.000|XOffset=0mil|YOffset=0mil|HoleType=Round|Shape=RoundedRectangle|*
%AMROUNDEDRECTD47*
21,1,0.02520,0.02205,0,0,180.0*
21,1,0.01890,0.02835,0,0,180.0*
1,1,0.00630,-0.00945,0.01102*
1,1,0.00630,0.00945,0.01102*
1,1,0.00630,0.00945,-0.01102*
1,1,0.00630,-0.00945,-0.01102*
%
%ADD47ROUNDEDRECTD47*%
%ADD48R,0.07284X0.12795*%
%ADD49R,0.03858X0.13386*%
%ADD50R,0.01280X0.01280*%
%ADD51R,0.03347X0.03543*%
%ADD52R,0.06127X0.05727*%
%ADD53R,0.05727X0.06127*%
%ADD54R,0.03543X0.03347*%
%ADD55R,0.03543X0.06102*%
%ADD56R,0.02362X0.03937*%
G04:AMPARAMS|DCode=87|XSize=39.37mil|YSize=86.61mil|CornerRadius=19.68mil|HoleSize=0mil|Usage=FLASHONLY|Rotation=270.000|XOffset=0mil|YOffset=0mil|HoleType=Round|Shape=RoundedRectangle|*
%AMROUNDEDRECTD87*
21,1,0.03937,0.04724,0,0,270.0*
21,1,0.00000,0.08661,0,0,270.0*
1,1,0.03937,-0.02362,0.00000*
1,1,0.03937,-0.02362,0.00000*
1,1,0.03937,0.02362,0.00000*
1,1,0.03937,0.02362,0.00000*
%
%ADD87ROUNDEDRECTD87*%
G04:AMPARAMS|DCode=88|XSize=39.37mil|YSize=70.87mil|CornerRadius=19.68mil|HoleSize=0mil|Usage=FLASHONLY|Rotation=270.000|XOffset=0mil|YOffset=0mil|HoleType=Round|Shape=RoundedRectangle|*
%AMROUNDEDRECTD88*
21,1,0.03937,0.03150,0,0,270.0*
21,1,0.00000,0.07087,0,0,270.0*
1,1,0.03937,-0.01575,0.00000*
1,1,0.03937,-0.01575,0.00000*
1,1,0.03937,0.01575,0.00000*
1,1,0.03937,0.01575,0.00000*
%
%ADD88ROUNDEDRECTD88*%
%ADD97R,0.01575X0.01575*%
G04:AMPARAMS|DCode=98|XSize=98.43mil|YSize=13.78mil|CornerRadius=3.93mil|HoleSize=0mil|Usage=FLASHONLY|Rotation=180.000|XOffset=0mil|YOffset=0mil|HoleType=Round|Shape=RoundedRectangle|*
%AMROUNDEDRECTD98*
21,1,0.09843,0.00593,0,0,180.0*
21,1,0.09057,0.01378,0,0,180.0*
1,1,0.00785,-0.04529,0.00296*
1,1,0.00785,0.04529,0.00296*
1,1,0.00785,0.04529,-0.00296*
1,1,0.00785,-0.04529,-0.00296*
%
%ADD98ROUNDEDRECTD98*%
G04:AMPARAMS|DCode=99|XSize=51.18mil|YSize=15.75mil|CornerRadius=3.94mil|HoleSize=0mil|Usage=FLASHONLY|Rotation=180.000|XOffset=0mil|YOffset=0mil|HoleType=Round|Shape=RoundedRectangle|*
%AMROUNDEDRECTD99*
21,1,0.05118,0.00787,0,0,180.0*
21,1,0.04331,0.01575,0,0,180.0*
1,1,0.00787,-0.02165,0.00394*
1,1,0.00787,0.02165,0.00394*
1,1,0.00787,0.02165,-0.00394*
1,1,0.00787,-0.02165,-0.00394*
%
%ADD99ROUNDEDRECTD99*%
G04:AMPARAMS|DCode=100|XSize=39.37mil|YSize=15.75mil|CornerRadius=3.94mil|HoleSize=0mil|Usage=FLASHONLY|Rotation=180.000|XOffset=0mil|YOffset=0mil|HoleType=Round|Shape=RoundedRectangle|*
%AMROUNDEDRECTD100*
21,1,0.03937,0.00787,0,0,180.0*
21,1,0.03150,0.01575,0,0,180.0*
1,1,0.00787,-0.01575,0.00394*
1,1,0.00787,0.01575,0.00394*
1,1,0.00787,0.01575,-0.00394*
1,1,0.00787,-0.01575,-0.00394*
%
%ADD100ROUNDEDRECTD100*%
%ADD101R,0.02264X0.01378*%
%ADD102R,0.01378X0.02264*%
%ADD103R,0.02480X0.01968*%
%AMCUSTOMSHAPE104*
4,1,16,0.06890,-0.02855,0.05276,-0.02855,0.05276,-0.02264,0.06890,-0.02264,0.06890,-0.00293,0.05276,-0.00293,0.05276,0.00287,0.06890,0.00287,0.06890,0.02264,0.05276,0.02264,0.05276,0.02852,0.06890,0.02852,0.06890,0.04823,-0.02202,0.04823,-0.02202,-0.04823,0.06890,-0.04823,0.06890,-0.02855,0.0*%
%ADD104CUSTOMSHAPE104*%

%ADD105C,0.00623*%
%ADD106C,0.00600*%
%ADD107C,0.04500*%
%ADD108C,0.01500*%
%ADD109C,0.02000*%
%ADD110C,0.01800*%
%ADD111C,0.00800*%
%ADD112C,0.03000*%
%ADD113C,0.02500*%
%ADD114C,0.03500*%
%ADD115C,0.06496*%
%ADD116R,0.06496X0.06496*%
%ADD117R,0.06400X0.06400*%
%ADD118C,0.06400*%
%ADD119R,0.04724X0.04724*%
%ADD120C,0.04724*%
%ADD121C,0.02400*%
G36*
X70866Y144685D02*
X52165D01*
Y158164D01*
X70866D01*
Y144685D01*
D02*
G37*
G36*
X102411Y157037D02*
Y132087D01*
X88976D01*
Y142126D01*
X88189Y142913D01*
X74409D01*
X74410Y157480D01*
X102411D01*
Y157037D01*
D02*
G37*
G36*
X112091Y135433D02*
X108651Y131993D01*
X108037D01*
X107875Y132025D01*
X103044D01*
X103044Y157202D01*
X112091D01*
Y135433D01*
D02*
G37*
G36*
X115551Y131791D02*
Y129528D01*
Y129170D01*
X111656D01*
X110888Y130118D01*
X98366D01*
X94587Y128628D01*
Y117126D01*
X89705D01*
Y131398D01*
X110888D01*
X111844Y132087D01*
X115551D01*
Y131791D01*
D02*
G37*
G36*
Y125197D02*
X111566D01*
X110054Y125984D01*
X106791Y125984D01*
X105710D01*
Y128574D01*
X115551Y128574D01*
Y125197D01*
D02*
G37*
G36*
X54724Y118693D02*
X35827D01*
Y129134D01*
X54724D01*
Y118693D01*
D02*
G37*
G36*
X73988Y142492D02*
X74409Y142318D01*
X86614D01*
Y106299D01*
X82677D01*
Y100394D01*
X80234Y97951D01*
X55592D01*
X53150Y100394D01*
Y116142D01*
X57087D01*
Y142523D01*
X73976D01*
X73988Y142492D01*
D02*
G37*
G36*
X34646Y112100D02*
X28740Y106588D01*
Y96810D01*
X25474D01*
Y96808D01*
X20472D01*
Y106693D01*
X16142D01*
Y115354D01*
Y120866D01*
X24803D01*
Y138976D01*
X34646D01*
Y112100D01*
D02*
G37*
G36*
X174315Y94778D02*
Y87697D01*
X167067D01*
Y94770D01*
X167868Y95571D01*
X173522D01*
X174315Y94778D01*
D02*
G37*
G36*
X80856Y84793D02*
X82874Y82776D01*
Y71555D01*
X81004Y69685D01*
X55494D01*
Y82414D01*
X56919Y83838D01*
X56988Y83809D01*
X57087Y83711D01*
X57408D01*
X57776Y83558D01*
X69075D01*
X69443Y83711D01*
X70472D01*
X71555Y84793D01*
X80856Y84793D01*
D02*
G37*
G36*
X28796Y81062D02*
X25474D01*
Y80952D01*
X17717D01*
Y88583D01*
X28796D01*
Y81062D01*
D02*
G37*
G36*
X114665Y101181D02*
X114665Y83957D01*
X111417Y80709D01*
X87106D01*
X82382Y85433D01*
X70355D01*
X69075Y84153D01*
D01*
X57776D01*
X56496Y85433D01*
Y95571D01*
X57874Y96949D01*
X89173D01*
X94715Y102756D01*
X113091D01*
X114665Y101181D01*
D02*
G37*
G36*
X41043Y76181D02*
X30315D01*
Y105709D01*
X41043D01*
Y76181D01*
D02*
G37*
G36*
X12799Y80508D02*
X13780Y79527D01*
X22933D01*
X24606Y77854D01*
Y71260D01*
X3150D01*
X3150Y88976D01*
X12799Y88976D01*
Y80508D01*
D02*
G37*
G36*
X51347Y100984D02*
Y100394D01*
X49016D01*
Y74410D01*
X50197D01*
Y68761D01*
X41832D01*
X41732Y68803D01*
Y74410D01*
X42509D01*
Y114862D01*
X51170D01*
X51347Y100984D01*
D02*
G37*
G36*
X106496Y65748D02*
Y60747D01*
X99902Y60747D01*
Y62500D01*
X97155D01*
X97155Y64576D01*
X97539Y64961D01*
Y72244D01*
X106496D01*
Y65748D01*
D02*
G37*
G36*
X174213Y40354D02*
X146653D01*
Y66929D01*
X174213D01*
Y40354D01*
D02*
G37*
%LPC*%
G36*
X30955Y137319D02*
X30069D01*
X29214Y137090D01*
X28947Y136936D01*
X30512Y135371D01*
X32077Y136936D01*
X31810Y137090D01*
X30955Y137319D01*
D02*
G37*
G36*
X27533Y135521D02*
X27379Y135254D01*
X27150Y134399D01*
Y133514D01*
X27379Y132659D01*
X27533Y132392D01*
X29098Y133957D01*
X27533Y135521D01*
D02*
G37*
G36*
X33491D02*
X31926Y133957D01*
X33491Y132392D01*
X33645Y132659D01*
X33874Y133514D01*
Y134399D01*
X33645Y135254D01*
X33491Y135521D01*
D02*
G37*
G36*
X30512Y132542D02*
X28947Y130978D01*
X29214Y130824D01*
X30069Y130595D01*
X30955D01*
X31810Y130824D01*
X32076Y130978D01*
X30512Y132542D01*
D02*
G37*
%LPD*%
D12*
X159576Y151702D02*
X161417Y153543D01*
X159449Y143701D02*
X161417Y141732D01*
X155413Y143701D02*
X159449D01*
X155639Y151702D02*
X159576D01*
X155512Y151575D02*
X155639Y151702D01*
X70866Y71472D02*
Y71850D01*
X69528Y66732D02*
Y70133D01*
X70866Y71472D01*
X173322Y85532D02*
X176575D01*
X177165Y84941D01*
Y80905D02*
Y84941D01*
X172736Y86117D02*
Y87500D01*
Y86117D02*
X173322Y85532D01*
X95492Y70098D02*
X95512Y70079D01*
X95492Y70098D02*
Y74094D01*
X95472Y74114D02*
X95492Y74094D01*
X110039Y62331D02*
X110138Y62429D01*
Y67224D01*
X110236Y67323D01*
X110299Y71591D02*
X114110D01*
X110236Y71653D02*
X110299Y71591D01*
X114110D02*
X114173Y71528D01*
X115748Y62331D02*
Y67323D01*
X106595Y51476D02*
X109449Y54331D01*
X104189Y51476D02*
X106595D01*
X41465Y60165D02*
X44685D01*
X23732Y55090D02*
X36390D01*
X41465Y60165D01*
X23732Y43279D02*
X30244D01*
X38502Y113684D02*
Y117187D01*
X37402Y112584D02*
X38502Y113684D01*
X37402Y112205D02*
Y112584D01*
X37591Y51449D02*
X37626Y51413D01*
X41992D01*
X42028Y51378D01*
X42010Y40372D02*
X42028Y40354D01*
X37591Y40390D02*
X37608Y40372D01*
X42010D01*
X36516Y74213D02*
X36763Y73965D01*
X39716D01*
X40453Y73228D01*
Y71161D02*
Y73228D01*
X35461Y31665D02*
X44193D01*
X33957Y33169D02*
X35461Y31665D01*
X33957Y33169D02*
Y39567D01*
X30244Y43279D02*
X33957Y39567D01*
X23732Y43279D02*
X23823Y43189D01*
D26*
X153937Y46850D02*
D03*
X166929D02*
D03*
Y53347D02*
D03*
X153937D02*
D03*
Y59842D02*
D03*
X160433Y46850D02*
D03*
Y53347D02*
D03*
Y59842D02*
D03*
D27*
X187992Y76772D02*
D03*
Y73425D02*
D03*
Y70079D02*
D03*
Y66732D02*
D03*
Y63386D02*
D03*
Y60039D02*
D03*
Y56693D02*
D03*
Y53347D02*
D03*
Y50000D02*
D03*
Y46654D02*
D03*
Y43307D02*
D03*
Y39961D02*
D03*
Y36614D02*
D03*
Y33268D02*
D03*
Y29921D02*
D03*
X132874D02*
D03*
Y33268D02*
D03*
Y36614D02*
D03*
Y39961D02*
D03*
Y43307D02*
D03*
Y46654D02*
D03*
Y50000D02*
D03*
Y53347D02*
D03*
Y56693D02*
D03*
Y60039D02*
D03*
Y63386D02*
D03*
Y66732D02*
D03*
Y70079D02*
D03*
Y73425D02*
D03*
Y76772D02*
D03*
D28*
X183858Y25787D02*
D03*
X180512D02*
D03*
X177165D02*
D03*
X173819D02*
D03*
X170472D02*
D03*
X167126D02*
D03*
X163779D02*
D03*
X160433D02*
D03*
X157087D02*
D03*
X153740D02*
D03*
X150394D02*
D03*
X147047D02*
D03*
X143701D02*
D03*
X140354D02*
D03*
X137008D02*
D03*
Y80905D02*
D03*
X140354D02*
D03*
X143701D02*
D03*
X147047D02*
D03*
X150394D02*
D03*
X153740D02*
D03*
X157087D02*
D03*
X160433D02*
D03*
X163779D02*
D03*
X167126D02*
D03*
X170472D02*
D03*
X173819D02*
D03*
X177165D02*
D03*
X180512D02*
D03*
X183858D02*
D03*
D29*
X132874Y25787D02*
D03*
X187992D02*
D03*
X132874Y80905D02*
D03*
X187992D02*
D03*
D30*
X23732Y37571D02*
D03*
Y62768D02*
D03*
Y59618D02*
D03*
Y40720D02*
D03*
D31*
Y43279D02*
D03*
Y45248D02*
D03*
Y47216D02*
D03*
Y49185D02*
D03*
Y51153D02*
D03*
Y53122D02*
D03*
Y55090D02*
D03*
Y57059D02*
D03*
D32*
X58799Y104331D02*
D03*
X45925D02*
D03*
D33*
X151772Y151575D02*
D03*
X155512D02*
D03*
X155413Y143701D02*
D03*
X151673D02*
D03*
D34*
X124724Y97173D02*
D03*
Y100913D02*
D03*
X124606Y112232D02*
D03*
Y108492D02*
D03*
D35*
X40453Y71161D02*
D03*
X43012D02*
D03*
D36*
X37591Y48890D02*
D03*
Y51449D02*
D03*
Y40390D02*
D03*
Y42949D02*
D03*
X38502Y119746D02*
D03*
Y117187D02*
D03*
D37*
X72638Y100000D02*
D03*
Y90945D02*
D03*
Y81890D02*
D03*
D38*
X97244Y90945D02*
D03*
D39*
X100394Y127165D02*
D03*
X102362D02*
D03*
X104331D02*
D03*
X106299D02*
D03*
D40*
X113641Y130408D02*
D03*
Y126944D02*
D03*
X65748Y99075D02*
D03*
Y95610D02*
D03*
X59252Y85689D02*
D03*
Y82224D02*
D03*
X65059Y82224D02*
D03*
Y85689D02*
D03*
X116713Y14803D02*
D03*
Y18268D02*
D03*
X70374Y16535D02*
D03*
Y13071D02*
D03*
D41*
X18413Y117323D02*
D03*
X13083D02*
D03*
X114476Y110433D02*
D03*
X109146D02*
D03*
D42*
X17449Y127165D02*
D03*
X14047D02*
D03*
X145402Y143701D02*
D03*
X142000D02*
D03*
X104189Y51476D02*
D03*
X100787D02*
D03*
X142000Y151575D02*
D03*
X145402D02*
D03*
D43*
X16929Y103923D02*
D03*
Y108675D02*
D03*
X14961Y103923D02*
D03*
X12992Y108675D02*
D03*
X14961D02*
D03*
D44*
X12992Y104118D02*
D03*
D45*
X78248Y23622D02*
D03*
X109547D02*
D03*
X78248Y5906D02*
D03*
X109547D02*
D03*
X62894Y6102D02*
D03*
X31594D02*
D03*
X62894Y23819D02*
D03*
X31594D02*
D03*
D46*
X57677Y54949D02*
D03*
Y51547D02*
D03*
X85630Y51449D02*
D03*
Y54850D02*
D03*
X110039Y62331D02*
D03*
Y58929D02*
D03*
X130512Y112063D02*
D03*
Y108661D02*
D03*
X130807Y100449D02*
D03*
Y97047D02*
D03*
X115748Y58929D02*
D03*
Y62331D02*
D03*
X114173Y74929D02*
D03*
Y71528D02*
D03*
X6299Y108000D02*
D03*
Y104598D02*
D03*
X44193Y31665D02*
D03*
Y35067D02*
D03*
X44685Y60165D02*
D03*
Y56764D02*
D03*
X122618Y18236D02*
D03*
Y14835D02*
D03*
D47*
X72992Y66732D02*
D03*
X69528D02*
D03*
X176289Y89802D02*
D03*
X172824D02*
D03*
X168513D02*
D03*
X165048D02*
D03*
X48661Y71161D02*
D03*
X52126D02*
D03*
X98976Y70079D02*
D03*
X95512D02*
D03*
D48*
X62008Y135531D02*
D03*
Y151476D02*
D03*
D49*
X92264Y124311D02*
D03*
X82933D02*
D03*
D50*
X94831Y61417D02*
D03*
Y59449D02*
D03*
X95866Y57429D02*
D03*
X97835D02*
D03*
X99803D02*
D03*
X100835Y59449D02*
D03*
X100839Y61417D02*
D03*
X99803Y63433D02*
D03*
X97835Y63435D02*
D03*
X95866Y63433D02*
D03*
D51*
X18406Y135433D02*
D03*
X12303D02*
D03*
X108661Y118209D02*
D03*
X114764D02*
D03*
X45472Y78839D02*
D03*
X51575D02*
D03*
D52*
X80801Y138790D02*
D03*
Y146080D02*
D03*
D53*
X99111Y152756D02*
D03*
X106401D02*
D03*
X99111Y141732D02*
D03*
X106401D02*
D03*
D54*
X101083Y111221D02*
D03*
Y117323D02*
D03*
D55*
X9551Y84845D02*
D03*
X19984D02*
D03*
D56*
X51673Y121653D02*
D03*
X55413Y112205D02*
D03*
X47933D02*
D03*
D87*
X5720Y67177D02*
D03*
Y33161D02*
D03*
D88*
X21468Y67177D02*
D03*
Y33161D02*
D03*
D97*
X166929Y59842D02*
D03*
D98*
X103347Y130768D02*
D03*
D99*
X105709Y132835D02*
D03*
D100*
X100394D02*
D03*
D101*
X75886Y49902D02*
D03*
Y51870D02*
D03*
Y53839D02*
D03*
Y55807D02*
D03*
X66732D02*
D03*
Y53839D02*
D03*
Y51870D02*
D03*
Y49902D02*
D03*
D102*
X73277Y56447D02*
D03*
X71309D02*
D03*
X69340D02*
D03*
Y49262D02*
D03*
X73277D02*
D03*
X71309D02*
D03*
D103*
X27264Y79528D02*
D03*
Y82087D02*
D03*
Y84646D02*
D03*
Y87205D02*
D03*
Y95276D02*
D03*
Y97835D02*
D03*
Y100394D02*
D03*
Y102953D02*
D03*
D104*
X32913Y83366D02*
D03*
Y99114D02*
D03*
D105*
X27512Y47216D02*
Y50115D01*
X121040Y50962D02*
X129058D01*
X59547Y34252D02*
X102318D01*
X120451Y52385D01*
X58958Y32829D02*
X102908D01*
X121040Y50962D01*
X120451Y52385D02*
X129058D01*
X82726Y60285D02*
Y64420D01*
X82579Y64567D02*
X82726Y64420D01*
X78248Y55807D02*
X82726Y60285D01*
X75886Y55807D02*
X78248D01*
X46579Y45208D02*
X58958Y32829D01*
X47168Y46631D02*
X59547Y34252D01*
X130020Y50000D02*
X132874D01*
X129058Y50962D02*
X130020Y50000D01*
X130020Y53347D02*
X132874D01*
X129058Y52385D02*
X130020Y53347D01*
X33858Y42913D02*
X37591D01*
X23732Y53122D02*
X29850D01*
X20445D02*
X23732D01*
X136811Y75394D02*
X141535D01*
X143701Y77559D01*
Y80905D01*
X19736Y49949D02*
Y52413D01*
X20445Y53122D01*
X19736Y49949D02*
X20500Y49185D01*
X23732D01*
X29555Y47216D02*
X33858Y42913D01*
X27512Y47216D02*
X29555D01*
X23732D02*
X27512D01*
X23732Y51153D02*
X26473D01*
X37955Y46631D02*
X47168D01*
X37955Y45208D02*
X46579D01*
X26473Y51153D02*
X27512Y50115D01*
X37591Y44843D02*
X37955Y45208D01*
X37591Y46996D02*
X37955Y46631D01*
X37591Y42949D02*
Y44843D01*
X34083Y48890D02*
X37591D01*
Y46996D02*
Y48890D01*
X23732Y51153D02*
X23799Y51087D01*
X29850Y53122D02*
X34083Y48890D01*
D106*
X59350Y43701D02*
X67716D01*
X69340Y45325D01*
X57677Y45374D02*
X59350Y43701D01*
X69340Y45325D02*
Y49262D01*
X22638Y125984D02*
Y134150D01*
X18406Y135433D02*
X21354D01*
X22638Y134150D01*
X123819Y152756D02*
X125000Y151575D01*
X142000D01*
X145402D02*
X151772D01*
X145402Y143701D02*
X151673D01*
X142000Y137528D02*
Y143701D01*
X143701Y135827D02*
X161417D01*
X142000Y137528D02*
X143701Y135827D01*
X169095Y93799D02*
Y128150D01*
X161417Y135827D02*
X169095Y128150D01*
X106401Y141732D02*
X115157D01*
X120177Y119685D02*
Y136713D01*
X115157Y141732D02*
X120177Y136713D01*
X13083Y114476D02*
Y117323D01*
Y114476D02*
X14961Y112598D01*
Y108675D02*
Y112598D01*
X168996Y93701D02*
X169095Y93799D01*
X72992Y66732D02*
X75984D01*
X78051Y64665D01*
X57677Y45374D02*
Y51547D01*
X61713Y66535D02*
X69331D01*
X69528Y66732D01*
X57677Y54949D02*
Y62500D01*
X61713Y66535D01*
X57705Y54921D02*
X62992D01*
X57677Y54949D02*
X57705Y54921D01*
X63878Y55807D02*
X66732D01*
X62992Y54921D02*
X63878Y55807D01*
X70276Y61811D02*
X71309Y60778D01*
X65748Y61811D02*
X70276D01*
X63878Y63681D02*
X65748Y61811D01*
X61319Y60335D02*
X61417Y60236D01*
X68209D01*
X71309Y43652D02*
X73327Y41634D01*
X71309Y43652D02*
Y49262D01*
X81791Y55020D02*
X85461D01*
X85630Y54850D01*
X78839Y49902D02*
X80386Y51449D01*
X85630D01*
X75886Y49902D02*
X78839D01*
X91535Y45276D02*
X104331D01*
X115748Y56693D02*
Y58929D01*
X104331Y45276D02*
X115748Y56693D01*
Y58929D02*
X117984D01*
X74213Y45276D02*
X91535D01*
X91453Y45358D02*
X91535Y45276D01*
X91453Y45358D02*
Y51099D01*
X73277Y46211D02*
X74213Y45276D01*
X73277Y46211D02*
Y49262D01*
X69340Y56447D02*
Y59104D01*
X68209Y60236D02*
X69340Y59104D01*
X71309Y56447D02*
Y60778D01*
X70177Y63386D02*
X72539D01*
X73277Y56447D02*
Y62648D01*
X72539Y63386D02*
X73277Y62648D01*
X69528Y64035D02*
X70177Y63386D01*
X69528Y64035D02*
Y66732D01*
X87500Y72539D02*
X91339Y76378D01*
X87500Y61910D02*
Y72539D01*
Y61910D02*
X89961Y59449D01*
X94831D01*
X132677Y70079D02*
X132776Y69980D01*
X108760Y76378D02*
X110209Y74929D01*
X91339Y76378D02*
X108760D01*
X133661Y108661D02*
X140354Y101969D01*
Y80905D02*
Y101969D01*
X137008Y80905D02*
Y85925D01*
X130807Y92126D02*
X137008Y85925D01*
X147047Y80905D02*
Y98228D01*
X166535Y74114D02*
X170330D01*
X173819Y77603D01*
X122618Y18236D02*
X180933D01*
X183858Y21161D01*
Y25787D01*
X127165Y70079D02*
X132677D01*
X117984Y58929D02*
X125787Y66732D01*
X132874D01*
X91339Y68898D02*
X92520Y70079D01*
X91339Y63091D02*
Y68898D01*
Y63091D02*
X93012Y61417D01*
X92520Y70079D02*
X95276D01*
X93012Y61417D02*
X94831D01*
X95276Y69842D02*
X95512Y70079D01*
X114173Y74929D02*
X122315D01*
X110209D02*
X114173D01*
X95276Y67421D02*
Y69842D01*
Y67421D02*
X95866Y66831D01*
Y63433D02*
Y66831D01*
X6299Y111417D02*
X7087Y112205D01*
X12205D01*
X12992Y111417D01*
X6299Y108000D02*
Y111417D01*
X12992Y108675D02*
Y111417D01*
X16929Y94488D02*
Y94582D01*
X14961Y96550D02*
X16929Y94582D01*
X14961Y96550D02*
Y103923D01*
X16929Y98425D02*
Y103923D01*
Y98425D02*
X20079Y95276D01*
X27264D01*
X100835Y59449D02*
X103937D01*
X104528Y58858D02*
X109968D01*
X103937Y59449D02*
X104528Y58858D01*
X109968D02*
X110039Y58929D01*
X92422Y57429D02*
X95866D01*
X90945Y55512D02*
Y55952D01*
X92422Y57429D01*
X122315Y74929D02*
X127165Y70079D01*
X104331Y124016D02*
X105512Y122835D01*
X104331Y124016D02*
Y127165D01*
X28627Y73622D02*
X31102D01*
X27347Y74902D02*
X28627Y73622D01*
X27264Y74902D02*
X27347D01*
X27264D02*
Y79528D01*
X118701Y118209D02*
X120177Y119685D01*
X114764Y118209D02*
X118701D01*
X173819Y77603D02*
Y80905D01*
X158640Y72782D02*
X160433Y74575D01*
Y80905D01*
X155905Y76968D02*
X157087Y78150D01*
Y80905D01*
X151673Y102854D02*
Y108957D01*
X147047Y98228D02*
X151673Y102854D01*
X99803Y55610D02*
X100787Y54626D01*
Y51476D02*
Y54626D01*
X99803Y55610D02*
Y57429D01*
X94291Y53937D02*
X96653D01*
X91453Y51099D02*
X94291Y53937D01*
X96653D02*
X97835Y55118D01*
Y57429D01*
X132776Y69980D02*
X132874Y70079D01*
X70374Y16535D02*
X77471D01*
X70374D02*
Y21358D01*
X62894Y23819D02*
X67913D01*
X70374Y21358D01*
X31594Y23819D02*
X62894D01*
X122587Y18268D02*
X122618Y18236D01*
X116713Y18268D02*
X122587D01*
X109547Y23622D02*
X115157D01*
X116713Y18268D02*
Y22067D01*
X115157Y23622D02*
X116713Y22067D01*
X78248Y23622D02*
X109547D01*
X99114Y123425D02*
X100394Y124705D01*
Y127165D01*
X102362Y122441D02*
Y127165D01*
X101083Y121161D02*
X102362Y122441D01*
X101083Y117323D02*
Y121161D01*
X104035Y117323D02*
X104921Y118209D01*
X101083Y117323D02*
X104035D01*
X104921Y118209D02*
X108661D01*
Y110917D02*
X109146Y110433D01*
X108661Y110917D02*
Y118209D01*
X124732Y108366D02*
X127503D01*
X127854Y108718D01*
Y111712D01*
X124606Y108492D02*
X124732Y108366D01*
X128206Y112063D02*
X130512D01*
X127854Y111712D02*
X128206Y112063D01*
X130512Y108661D02*
X133661D01*
X124724Y97173D02*
X124949Y96949D01*
X127461D01*
X128347Y97835D01*
Y100097D02*
X128698Y100449D01*
X128347Y97835D02*
Y100097D01*
X128698Y100449D02*
X130807D01*
Y92126D02*
Y97047D01*
D107*
X125000Y151575D02*
X132874Y143701D01*
X106401Y152756D02*
X123819D01*
X132874Y127362D02*
Y143701D01*
Y127362D02*
X141437Y118799D01*
X151673D01*
D108*
X18406Y139272D02*
X21260Y142126D01*
X18406Y135433D02*
Y139272D01*
Y131981D02*
Y135433D01*
X14961Y131102D02*
X17527D01*
X18406Y131981D01*
X14047Y130189D02*
X14961Y131102D01*
X14047Y127165D02*
Y130189D01*
X17449Y123748D02*
Y127165D01*
X16535Y122835D02*
X17449Y123748D01*
X14567Y122835D02*
X16535D01*
X13083Y121350D02*
X14567Y122835D01*
X13083Y117323D02*
Y121350D01*
X187992Y21208D02*
Y25787D01*
X185827Y19043D02*
X187992Y21208D01*
X185827Y18799D02*
Y19043D01*
X183858Y80905D02*
X187992D01*
X171358Y35335D02*
X171530Y35162D01*
X174483D01*
X177165Y32480D01*
X169267Y31127D02*
X171629D01*
X173819Y28937D01*
X169095Y31299D02*
X169267Y31127D01*
X173819Y25787D02*
Y28937D01*
X179089Y94392D02*
X181351Y96653D01*
X176289Y93513D02*
X177167Y94392D01*
X181351Y96653D02*
X181595D01*
X177167Y94392D02*
X179089D01*
X176289Y89802D02*
Y93513D01*
X180512Y80905D02*
Y90847D01*
X183858Y80905D02*
Y88142D01*
X38386Y133957D02*
Y139961D01*
X21260Y142126D02*
X36220D01*
X38386Y139961D01*
X7480Y135433D02*
X12303D01*
X177165Y25787D02*
Y32480D01*
X180512Y90847D02*
X183957Y94291D01*
X186713Y90997D02*
Y91240D01*
X183858Y88142D02*
X186713Y90997D01*
X180512Y76968D02*
Y80905D01*
X184055Y29921D02*
X187992D01*
X184055Y33268D02*
X187992D01*
X184055Y36614D02*
X187992D01*
X184055Y50000D02*
X187992D01*
X184055Y46654D02*
X187992D01*
X184055Y43307D02*
X187992D01*
X184055Y39961D02*
X187992D01*
X184055Y63386D02*
X187992D01*
X184055Y60039D02*
X187992D01*
X184055Y56693D02*
X187992D01*
X184055Y53347D02*
X187992D01*
X184055Y66732D02*
X187992D01*
X184055Y70079D02*
X187992D01*
X184055Y73425D02*
X187992D01*
X184055Y76772D02*
X187992D01*
D109*
X127175Y28150D02*
X129510Y25815D01*
X132846D02*
X132874Y25787D01*
X129510Y25815D02*
X132846D01*
X127067Y28150D02*
X127175D01*
X172736Y87500D02*
Y89714D01*
X172824Y89802D01*
X168513D02*
X172824D01*
X44193Y35067D02*
X46967D01*
X48120Y36220D01*
X48228D01*
X15701Y42732D02*
X17713Y40720D01*
X23732D01*
Y59618D02*
X35209D01*
X43012Y67421D01*
Y71161D01*
X27264Y84646D02*
Y87205D01*
Y82087D02*
Y84646D01*
X122653Y14799D02*
X127917D01*
X122618Y14835D02*
X122653Y14799D01*
X127917D02*
X127953Y14764D01*
X114476Y110433D02*
X114620Y110577D01*
Y118065D02*
X114764Y118209D01*
X114620Y110577D02*
Y118065D01*
X132874Y85630D02*
X132874Y85630D01*
X132874Y80905D02*
Y85630D01*
X52126Y66083D02*
Y71161D01*
Y66083D02*
X52165Y66043D01*
X116634Y10630D02*
X116673Y10669D01*
Y14764D02*
X116713Y14803D01*
X116673Y10669D02*
Y14764D01*
X70374Y13071D02*
X70374Y13071D01*
Y8760D02*
Y13071D01*
X15701Y42732D02*
Y57594D01*
X17724Y59618D02*
X23732D01*
X15701Y57594D02*
X17724Y59618D01*
D110*
X160633Y89802D02*
X165048D01*
X158725Y87894D02*
X160633Y89802D01*
X158563Y87894D02*
X158725D01*
X44685Y56764D02*
X47700D01*
X48853Y55610D01*
X116043Y104331D02*
X119461Y100913D01*
X124606D01*
X124606Y112232D02*
Y116570D01*
X126969Y118932D01*
Y119095D01*
X28173Y37543D02*
X28201Y37516D01*
X23732Y37571D02*
X23760Y37543D01*
X28173D01*
X27594Y64103D02*
Y66732D01*
X23732Y62768D02*
X24013Y63049D01*
X26539D01*
X27594Y64103D01*
X48853Y55610D02*
X49016D01*
D111*
X6299Y99213D02*
X9551Y95961D01*
Y84845D02*
Y95961D01*
X6299Y99213D02*
Y104598D01*
D112*
X103740Y5906D02*
X111221D01*
X79921D02*
X87894D01*
X87894Y5906D01*
X103691Y5955D02*
X103740Y5906D01*
X103642Y6004D02*
X103691Y5955D01*
X56299Y6102D02*
X62894D01*
X31594D02*
X38189D01*
D113*
X96358Y111221D02*
X101083D01*
X51575Y78839D02*
Y83760D01*
D114*
X38386Y126181D02*
Y133957D01*
Y126181D02*
X38484Y126083D01*
D115*
X151673Y128642D02*
D03*
Y118799D02*
D03*
D116*
Y108957D02*
D03*
D117*
X166339Y7874D02*
D03*
D118*
X156339D02*
D03*
X146339D02*
D03*
X136339D02*
D03*
D119*
X38386Y133957D02*
D03*
D120*
X30512D02*
D03*
D121*
X22638Y125984D02*
D03*
X161417Y153543D02*
D03*
Y141732D02*
D03*
X185827Y18799D02*
D03*
X78051Y64665D02*
D03*
X63878Y63681D02*
D03*
X61319Y60335D02*
D03*
X73327Y41634D02*
D03*
X82579Y64567D02*
D03*
X81791Y55020D02*
D03*
X87500Y61910D02*
D03*
X171358Y35335D02*
D03*
X169095Y31299D02*
D03*
X127067Y28150D02*
D03*
X158563Y87894D02*
D03*
X181595Y96653D02*
D03*
X172244Y93701D02*
D03*
X168996D02*
D03*
X166535Y74114D02*
D03*
X160236Y42618D02*
D03*
X157185Y50098D02*
D03*
X104724Y63090D02*
D03*
X95472Y74114D02*
D03*
X116043Y104331D02*
D03*
X126969Y119095D02*
D03*
X91535Y142717D02*
D03*
Y150591D02*
D03*
X16929Y94488D02*
D03*
X7480Y135433D02*
D03*
X104724Y66831D02*
D03*
X110236Y67323D02*
D03*
Y71653D02*
D03*
X115748Y67323D02*
D03*
X136811Y75394D02*
D03*
X70866Y71850D02*
D03*
X109449Y54331D02*
D03*
X90945Y55512D02*
D03*
X127953Y14764D02*
D03*
X105512Y122835D02*
D03*
X76772Y71850D02*
D03*
X64961Y76772D02*
D03*
X20472Y73622D02*
D03*
X5709Y85433D02*
D03*
Y81496D02*
D03*
Y73622D02*
D03*
X15551D02*
D03*
X10630D02*
D03*
X31102D02*
D03*
X20472Y77559D02*
D03*
X15551D02*
D03*
X37402Y112205D02*
D03*
X59055Y71850D02*
D03*
Y76772D02*
D03*
X70866D02*
D03*
X76772D02*
D03*
X64961Y71850D02*
D03*
X158640Y72782D02*
D03*
X155905Y76968D02*
D03*
X183957Y94291D02*
D03*
X186713Y91240D02*
D03*
X42028Y51378D02*
D03*
X132874Y85630D02*
D03*
X109646Y85433D02*
D03*
X104724D02*
D03*
X67913Y151575D02*
D03*
X55118D02*
D03*
X67913Y147638D02*
D03*
Y155512D02*
D03*
X55118D02*
D03*
Y147638D02*
D03*
X96358Y111221D02*
D03*
X36516Y74213D02*
D03*
X52165Y66043D02*
D03*
X51575Y83760D02*
D03*
X77751Y16255D02*
D03*
X116634Y10630D02*
D03*
X38189Y6102D02*
D03*
X87894Y5906D02*
D03*
X103691Y5955D02*
D03*
X56299Y6102D02*
D03*
X70374Y8760D02*
D03*
X75689Y131988D02*
D03*
X87598Y146653D02*
D03*
X79724Y154528D02*
D03*
X83661D02*
D03*
X87598Y150591D02*
D03*
X91535Y154528D02*
D03*
X87598D02*
D03*
X91535Y134843D02*
D03*
Y138779D02*
D03*
Y146653D02*
D03*
X99114Y123425D02*
D03*
X160335Y64468D02*
D03*
X171457Y60039D02*
D03*
X171161Y53445D02*
D03*
X171260Y46752D02*
D03*
X149311Y46358D02*
D03*
X149114Y59449D02*
D03*
X149311Y52953D02*
D03*
X163681Y50098D02*
D03*
Y56595D02*
D03*
X157185Y56693D02*
D03*
X180512Y76968D02*
D03*
X184055Y29921D02*
D03*
Y33268D02*
D03*
Y36614D02*
D03*
Y50000D02*
D03*
Y46654D02*
D03*
Y43307D02*
D03*
Y39961D02*
D03*
Y63386D02*
D03*
Y60039D02*
D03*
Y56693D02*
D03*
Y53347D02*
D03*
Y66732D02*
D03*
Y70079D02*
D03*
Y73425D02*
D03*
Y76772D02*
D03*
X28201Y37516D02*
D03*
X27594Y66732D02*
D03*
X49016Y55610D02*
D03*
X42028Y40354D02*
D03*
X48228Y36220D02*
D03*
X10630Y77559D02*
D03*
X5709D02*
D03*
X60138Y90650D02*
D03*
X109646Y95276D02*
D03*
Y90354D02*
D03*
Y100197D02*
D03*
X104724Y95276D02*
D03*
X64468Y90551D02*
D03*
X104724Y100197D02*
D03*
Y90354D02*
D03*
M02*
