G04*
G04 #@! TF.GenerationSoftware,Altium Limited,Altium Designer,24.9.1 (31)*
G04*
G04 Layer_Color=32896*
%FSLAX25Y25*%
%MOIN*%
G70*
G04*
G04 #@! TF.SameCoordinates,25C74C4A-671D-483D-B12C-01953B9F8915*
G04*
G04*
G04 #@! TF.FilePolarity,Positive*
G04*
G01*
G75*
%ADD12C,0.01000*%
D12*
X26663Y124382D02*
X32661D01*
Y121383D01*
X31662Y120384D01*
X30662D01*
X29662Y121383D01*
Y124382D01*
Y121383D01*
X28663Y120384D01*
X27663D01*
X26663Y121383D01*
Y124382D01*
X32661Y118384D02*
X28663D01*
X26663Y116385D01*
X28663Y114386D01*
X32661D01*
X29662D01*
Y118384D01*
X26663Y112386D02*
Y108388D01*
Y110387D01*
X32661D01*
X29662Y106388D02*
Y102390D01*
X160931Y30045D02*
X159931Y29045D01*
Y27046D01*
X160931Y26046D01*
X161930D01*
X162930Y27046D01*
Y28045D01*
Y27046D01*
X163930Y26046D01*
X164929D01*
X165929Y27046D01*
Y29045D01*
X164929Y30045D01*
X159931Y24047D02*
X163930D01*
X165929Y22047D01*
X163930Y20048D01*
X159931D01*
X160931Y18048D02*
X159931Y17049D01*
Y15049D01*
X160931Y14050D01*
X161930D01*
X162930Y15049D01*
Y16049D01*
Y15049D01*
X163930Y14050D01*
X164929D01*
X165929Y15049D01*
Y17049D01*
X164929Y18048D01*
X140246Y29939D02*
Y27939D01*
Y28939D01*
X146244D01*
Y29939D01*
Y27939D01*
X140246Y21941D02*
Y23941D01*
X141246Y24940D01*
X145244D01*
X146244Y23941D01*
Y21941D01*
X145244Y20941D01*
X141246D01*
X140246Y21941D01*
X146244Y15943D02*
X140246D01*
X143245Y18942D01*
Y14943D01*
X150695Y26046D02*
X149695Y27046D01*
Y29045D01*
X150695Y30045D01*
X154693D01*
X155693Y29045D01*
Y27046D01*
X154693Y26046D01*
X152694D01*
Y28045D01*
X155693Y24047D02*
X149695D01*
X155693Y20048D01*
X149695D01*
Y18048D02*
X155693D01*
Y15049D01*
X154693Y14050D01*
X150695D01*
X149695Y15049D01*
Y18048D01*
X36014Y124087D02*
X42012D01*
Y121088D01*
X41012Y120088D01*
X40012D01*
X39013Y121088D01*
Y124087D01*
Y121088D01*
X38013Y120088D01*
X37013D01*
X36014Y121088D01*
Y124087D01*
X42012Y118089D02*
X38013D01*
X36014Y116090D01*
X38013Y114090D01*
X42012D01*
X39013D01*
Y118089D01*
X36014Y112091D02*
Y108092D01*
Y110092D01*
X42012D01*
X39013Y106093D02*
Y102094D01*
X37013Y104094D02*
X41012D01*
X113173Y28314D02*
Y34312D01*
X110174D01*
X109175Y33313D01*
Y31313D01*
X110174Y30314D01*
X113173D01*
X107175Y28314D02*
Y32313D01*
X105176Y34312D01*
X103176Y32313D01*
Y28314D01*
Y31313D01*
X107175D01*
X101177Y34312D02*
Y33313D01*
X99178Y31313D01*
X97178Y33313D01*
Y34312D01*
X99178Y31313D02*
Y28314D01*
X95179Y34312D02*
Y28314D01*
X91180D01*
X86182Y34312D02*
X88181D01*
X89181Y33313D01*
Y29314D01*
X88181Y28314D01*
X86182D01*
X85182Y29314D01*
Y33313D01*
X86182Y34312D01*
X83183Y28314D02*
Y32313D01*
X81184Y34312D01*
X79184Y32313D01*
Y28314D01*
Y31313D01*
X83183D01*
X77185Y34312D02*
Y28314D01*
X74186D01*
X73186Y29314D01*
Y33313D01*
X74186Y34312D01*
X77185D01*
X61190D02*
X65189D01*
Y31313D01*
X63189D01*
X65189D01*
Y28314D01*
X59191Y34312D02*
Y28314D01*
X55192D01*
X53193Y34312D02*
X51193D01*
X52193D01*
Y28314D01*
X53193D01*
X51193D01*
X44196Y33313D02*
X45195Y34312D01*
X47195D01*
X48194Y33313D01*
Y29314D01*
X47195Y28314D01*
X45195D01*
X44196Y29314D01*
Y31313D01*
X46195D01*
X42196Y34312D02*
Y28314D01*
Y31313D01*
X38197D01*
Y34312D01*
Y28314D01*
X36198Y34312D02*
X32199D01*
X34199D01*
Y28314D01*
X109175Y23715D02*
X110174Y24715D01*
X112174D01*
X113173Y23715D01*
Y19716D01*
X112174Y18717D01*
X110174D01*
X109175Y19716D01*
X104176Y24715D02*
X106175D01*
X107175Y23715D01*
Y19716D01*
X106175Y18717D01*
X104176D01*
X103176Y19716D01*
Y23715D01*
X104176Y24715D01*
X101177Y18717D02*
Y24715D01*
X97178Y18717D01*
Y24715D01*
X95179D02*
X91180D01*
X93180D01*
Y18717D01*
X89181D02*
Y24715D01*
X86182D01*
X85182Y23715D01*
Y21716D01*
X86182Y20716D01*
X89181D01*
X87182D02*
X85182Y18717D01*
X80184Y24715D02*
X82183D01*
X83183Y23715D01*
Y19716D01*
X82183Y18717D01*
X80184D01*
X79184Y19716D01*
Y23715D01*
X80184Y24715D01*
X77185D02*
Y18717D01*
X73186D01*
X71187Y24715D02*
Y18717D01*
X67188D01*
X61190Y24715D02*
X65189D01*
Y18717D01*
X61190D01*
X65189Y21716D02*
X63189D01*
X59191Y18717D02*
Y24715D01*
X56192D01*
X55192Y23715D01*
Y21716D01*
X56192Y20716D01*
X59191D01*
X57191D02*
X55192Y18717D01*
X47195Y24715D02*
Y20716D01*
X45195Y18717D01*
X43196Y20716D01*
Y24715D01*
X41197Y18717D02*
X39197D01*
X40197D01*
Y24715D01*
X41197Y23715D01*
X36198Y18717D02*
Y19716D01*
X35199D01*
Y18717D01*
X36198D01*
X31200Y23715D02*
X30200Y24715D01*
X28201D01*
X27201Y23715D01*
Y19716D01*
X28201Y18717D01*
X30200D01*
X31200Y19716D01*
Y23715D01*
X131191Y29939D02*
Y27939D01*
Y28939D01*
X137189D01*
Y29939D01*
Y27939D01*
X131191Y21941D02*
Y23941D01*
X132191Y24940D01*
X136189D01*
X137189Y23941D01*
Y21941D01*
X136189Y20941D01*
X132191D01*
X131191Y21941D01*
Y14943D02*
Y18942D01*
X134190D01*
X133190Y16943D01*
Y15943D01*
X134190Y14943D01*
X136189D01*
X137189Y15943D01*
Y17942D01*
X136189Y18942D01*
X176108Y106315D02*
Y112313D01*
X173109D01*
X172109Y111313D01*
Y109314D01*
X173109Y108314D01*
X176108D01*
X170110Y112313D02*
Y106315D01*
X168110Y108314D01*
X166111Y106315D01*
Y112313D01*
X164111Y106315D02*
Y112313D01*
X162112Y110314D01*
X160113Y112313D01*
Y106315D01*
X171823Y130897D02*
X172822Y131897D01*
X174822D01*
X175821Y130897D01*
Y126898D01*
X174822Y125899D01*
X172822D01*
X171823Y126898D01*
Y128898D01*
X173822D01*
X169823Y125899D02*
Y131897D01*
X165825Y125899D01*
Y131897D01*
X163825D02*
Y125899D01*
X160826D01*
X159827Y126898D01*
Y130897D01*
X160826Y131897D01*
X163825D01*
X169611Y121661D02*
X173610D01*
Y118661D01*
X171610Y119661D01*
X170611D01*
X169611Y118661D01*
Y116662D01*
X170611Y115663D01*
X172610D01*
X173610Y116662D01*
X167612Y121661D02*
Y117662D01*
X165612Y115663D01*
X163613Y117662D01*
Y121661D01*
M02*
