G04*
G04 #@! TF.GenerationSoftware,Altium Limited,Altium Designer,24.9.1 (31)*
G04*
G04 Layer_Color=65535*
%FSLAX25Y25*%
%MOIN*%
G70*
G04*
G04 #@! TF.SameCoordinates,25C74C4A-671D-483D-B12C-01953B9F8915*
G04*
G04*
G04 #@! TF.FilePolarity,Positive*
G04*
G01*
G75*
%ADD10C,0.00787*%
%ADD11C,0.00984*%
%ADD12C,0.01000*%
%ADD13C,0.00500*%
%ADD14C,0.01181*%
%ADD15C,0.00400*%
%ADD16C,0.00394*%
%ADD17R,0.01400X0.04900*%
%ADD18R,0.04900X0.01400*%
D10*
X184252Y86614D02*
G03*
X184252Y86614I-394J0D01*
G01*
X11528Y32177D02*
X16449D01*
X11528Y68161D02*
X16449D01*
X49409Y104331D02*
X51378D01*
X53347D02*
X55315D01*
X53347Y102362D02*
Y106299D01*
X51378D02*
X53347Y104331D01*
X51378Y102362D02*
X53347Y104331D01*
X51378Y102362D02*
Y106299D01*
X77264Y77756D02*
Y104134D01*
X92618Y77756D02*
Y104134D01*
X77264D02*
X92618D01*
X77264Y77756D02*
X92618D01*
X98425Y126575D02*
Y128740D01*
X108268Y126575D02*
Y128740D01*
X99213Y134941D02*
X107480D01*
X108268Y124016D02*
Y124508D01*
X9748Y113823D02*
X21748D01*
X9748Y120823D02*
X21748D01*
Y113823D02*
Y120823D01*
X9748Y113823D02*
Y120823D01*
X18898Y103347D02*
Y109252D01*
X11024Y103347D02*
Y109252D01*
X82776Y26575D02*
X105020D01*
X105709Y9941D02*
Y19587D01*
X82776Y2953D02*
X105020D01*
X82087Y9941D02*
Y19587D01*
X35433Y10138D02*
Y19783D01*
X36122Y3150D02*
X58366D01*
X59055Y10138D02*
Y19783D01*
X36122Y26772D02*
X58366D01*
X54774Y132677D02*
X57185D01*
X51181Y136270D02*
X54774Y132677D01*
X69242D02*
X72835Y136270D01*
X66831Y132677D02*
X69242D01*
X51181Y136270D02*
Y154331D01*
X57185D01*
X66831D02*
X72835D01*
Y136270D02*
Y154331D01*
X26221Y90059D02*
X39606D01*
X26221Y76673D02*
Y77067D01*
Y89665D02*
Y90059D01*
Y76673D02*
X39606D01*
Y77067D01*
Y89665D02*
Y90059D01*
X26221Y105807D02*
X39606D01*
X26221Y92421D02*
Y92815D01*
Y105413D02*
Y105807D01*
Y92421D02*
X39606D01*
Y92815D01*
Y105413D02*
Y105807D01*
X21354Y132433D02*
Y138433D01*
X9354Y132433D02*
Y138433D01*
Y132433D02*
X21354D01*
X9354Y138433D02*
X21354D01*
X117811Y106933D02*
Y113933D01*
X105811Y106933D02*
Y113933D01*
Y106933D02*
X117811D01*
X105811Y113933D02*
X117811D01*
X187894Y99311D02*
Y138287D01*
X142618Y99311D02*
X187894D01*
X142618D02*
Y99323D01*
Y99311D02*
Y138287D01*
X187894D01*
X85301Y134435D02*
Y150435D01*
X76301Y134435D02*
Y150435D01*
X85301D01*
X76301Y134435D02*
X85301D01*
X110756Y148256D02*
Y157256D01*
X94756Y148256D02*
Y157256D01*
Y148256D02*
X110756D01*
X94756Y157256D02*
X110756D01*
Y137232D02*
Y146232D01*
X94756Y137232D02*
Y146232D01*
Y137232D02*
X110756D01*
X94756Y146232D02*
X110756D01*
X98083Y108272D02*
Y120272D01*
X104083Y108272D02*
Y120272D01*
X98083Y108272D02*
X104083D01*
X98083Y120272D02*
X104083D01*
X105713Y121209D02*
X117713D01*
X105713Y115209D02*
X117713D01*
X105713D02*
Y121209D01*
X117713Y115209D02*
Y121209D01*
X12799Y87502D02*
X16736D01*
X12799Y82187D02*
X16736D01*
X42524Y75839D02*
Y81839D01*
X54524Y75839D02*
Y81839D01*
X42524D02*
X54524D01*
X42524Y75839D02*
X54524D01*
X54429Y119685D02*
X57579D01*
Y115748D02*
Y119685D01*
X45768D02*
X48917D01*
X45768Y115748D02*
Y119685D01*
X22835Y128642D02*
X26772D01*
X22834Y128641D02*
Y158562D01*
X22835Y158563D02*
X46063D01*
X42126Y128642D02*
X46063D01*
Y158563D01*
D11*
X28752Y62748D02*
G03*
X28752Y62748I-492J0D01*
G01*
X73130Y103937D02*
G03*
X73130Y103937I-492J0D01*
G01*
X13484Y99660D02*
G03*
X13484Y99660I-492J0D01*
G01*
X73524Y23622D02*
G03*
X73524Y23622I-492J0D01*
G01*
X26870Y23819D02*
G03*
X26870Y23819I-492J0D01*
G01*
X24272Y87205D02*
G03*
X24272Y87205I-492J0D01*
G01*
Y102953D02*
G03*
X24272Y102953I-492J0D01*
G01*
X140550Y108957D02*
G03*
X140550Y108957I-492J0D01*
G01*
X45079Y112205D02*
G03*
X45079Y112205I-492J0D01*
G01*
X48720Y132579D02*
G03*
X48720Y132579I-492J0D01*
G01*
D12*
X91831Y61516D02*
G03*
X91831Y61516I-98J0D01*
G01*
X80197Y29839D02*
Y35837D01*
X83197D01*
X84196Y34837D01*
Y32838D01*
X83197Y31838D01*
X80197D01*
X82197D02*
X84196Y29839D01*
X90194Y35837D02*
X86195D01*
Y29839D01*
X90194D01*
X86195Y32838D02*
X88195D01*
X96192Y34837D02*
X95193Y35837D01*
X93193D01*
X92194Y34837D01*
Y33837D01*
X93193Y32838D01*
X95193D01*
X96192Y31838D01*
Y30838D01*
X95193Y29839D01*
X93193D01*
X92194Y30838D01*
X102190Y35837D02*
X98192D01*
Y29839D01*
X102190D01*
X98192Y32838D02*
X100191D01*
X104190Y35837D02*
X108188D01*
X106189D01*
Y29839D01*
X3078Y26486D02*
Y20488D01*
X6077D01*
X7077Y21488D01*
Y22488D01*
X6077Y23487D01*
X3078D01*
X6077D01*
X7077Y24487D01*
Y25487D01*
X6077Y26486D01*
X3078D01*
X12075D02*
X10076D01*
X9076Y25487D01*
Y21488D01*
X10076Y20488D01*
X12075D01*
X13075Y21488D01*
Y25487D01*
X12075Y26486D01*
X18074D02*
X16074D01*
X15075Y25487D01*
Y21488D01*
X16074Y20488D01*
X18074D01*
X19073Y21488D01*
Y25487D01*
X18074Y26486D01*
X21072D02*
X25071D01*
X23072D01*
Y20488D01*
X129906Y155620D02*
X125907D01*
Y152621D01*
X127907Y153621D01*
X128906D01*
X129906Y152621D01*
Y150622D01*
X128906Y149622D01*
X126907D01*
X125907Y150622D01*
X131905Y155620D02*
Y151621D01*
X133905Y149622D01*
X135904Y151621D01*
Y155620D01*
X119955Y145762D02*
X120955Y146762D01*
X122954D01*
X123954Y145762D01*
Y144763D01*
X122954Y143763D01*
X121955D01*
X122954D01*
X123954Y142763D01*
Y141763D01*
X122954Y140764D01*
X120955D01*
X119955Y141763D01*
X125953Y146762D02*
Y142763D01*
X127953Y140764D01*
X129952Y142763D01*
Y146762D01*
X131951Y145762D02*
X132951Y146762D01*
X134950D01*
X135950Y145762D01*
Y144763D01*
X134950Y143763D01*
X133951D01*
X134950D01*
X135950Y142763D01*
Y141763D01*
X134950Y140764D01*
X132951D01*
X131951Y141763D01*
D13*
X130020Y23031D02*
Y83661D01*
X46949Y108465D02*
X57776D01*
X46949Y100197D02*
X57776D01*
X159042Y149075D02*
Y154075D01*
X149642D02*
X159042D01*
X149642Y149075D02*
X159042D01*
X149642D02*
Y154075D01*
X149543Y141201D02*
Y146201D01*
Y141201D02*
X158943D01*
X149543Y146201D02*
X158943D01*
Y141201D02*
Y146201D01*
X122224Y104443D02*
X127224D01*
X122224Y95043D02*
Y104443D01*
X127224Y95043D02*
Y104443D01*
X122224Y95043D02*
X127224D01*
X122106Y106362D02*
X127106D01*
Y115762D01*
X122106Y106362D02*
Y115762D01*
X127106D01*
X38232Y73661D02*
X45232D01*
X38232Y68661D02*
X45232D01*
X38232D02*
Y73661D01*
X45232Y68661D02*
Y73661D01*
X35091Y46669D02*
X40091D01*
X35091Y53669D02*
X40091D01*
X35091Y46669D02*
Y53669D01*
X40091Y46669D02*
Y53669D01*
X35091Y38169D02*
Y45169D01*
X40091Y38169D02*
Y45169D01*
X35091Y38169D02*
X40091D01*
X35091Y45169D02*
X40091D01*
X36002Y121967D02*
X41002D01*
X36002Y114967D02*
X41002D01*
Y121967D01*
X36002Y114967D02*
Y121967D01*
X111241Y124676D02*
Y132576D01*
X116041D01*
Y124676D02*
Y132576D01*
X111241Y124676D02*
X116041D01*
X19548Y124965D02*
Y129265D01*
X12048D02*
X19548D01*
X12048Y124965D02*
Y129265D01*
Y124965D02*
X19548D01*
X55477Y49448D02*
Y56948D01*
X59777D01*
Y49448D02*
Y56948D01*
X55477Y49448D02*
X59777D01*
X75260Y64332D02*
Y69132D01*
X67360D02*
X75260D01*
X67360Y64332D02*
Y69132D01*
Y64332D02*
X75260D01*
X87830Y49450D02*
Y56950D01*
X83530Y49450D02*
X87830D01*
X83530D02*
Y56950D01*
X87830D01*
X178556Y87402D02*
Y92202D01*
X170656D02*
X178556D01*
X170656Y87402D02*
Y92202D01*
Y87402D02*
X178556D01*
X162781Y92202D02*
X170681D01*
Y87402D02*
Y92202D01*
X162781Y87402D02*
X170681D01*
X162781D02*
Y92202D01*
X46494Y68761D02*
X54394D01*
X46494D02*
Y73561D01*
X54394D01*
Y68761D02*
Y73561D01*
X63348Y93343D02*
Y101242D01*
X68148D01*
Y93343D02*
Y101242D01*
X63348Y93343D02*
X68148D01*
X56852Y87957D02*
X61652D01*
X56852Y80057D02*
Y87957D01*
Y80057D02*
X61652D01*
Y87957D01*
X67459Y80057D02*
Y87957D01*
X62659Y80057D02*
X67459D01*
X62659D02*
Y87957D01*
X67459D01*
X114313Y12535D02*
X119113D01*
Y20435D01*
X114313D02*
X119113D01*
X114313Y12535D02*
Y20435D01*
X67974Y10803D02*
Y18703D01*
X72774D01*
Y10803D02*
Y18703D01*
X67974Y10803D02*
X72774D01*
X101244Y67679D02*
Y72479D01*
X93344D02*
X101244D01*
X93344Y67679D02*
Y72479D01*
Y67679D02*
X101244D01*
X107839Y56830D02*
Y64330D01*
X112139D01*
Y56830D02*
Y64330D01*
X107839Y56830D02*
X112139D01*
X147501Y141501D02*
Y145801D01*
X140001D02*
X147501D01*
X140001Y141501D02*
Y145801D01*
Y141501D02*
X147501D01*
X128412Y114162D02*
X132712D01*
X128412Y106662D02*
Y114162D01*
Y106662D02*
X132712D01*
Y114162D01*
X128707Y102548D02*
X133007D01*
X128707Y95048D02*
Y102548D01*
Y95048D02*
X133007D01*
Y102548D01*
X106288Y49276D02*
Y53576D01*
X98788D02*
X106288D01*
X98788Y49276D02*
Y53576D01*
Y49276D02*
X106288D01*
X113548Y56830D02*
X117848D01*
Y64330D01*
X113548D02*
X117848D01*
X113548Y56830D02*
Y64330D01*
X112073Y77028D02*
X116373D01*
X112073Y69528D02*
Y77028D01*
Y69528D02*
X116373D01*
Y77028D01*
X4099Y102499D02*
Y109999D01*
X8399D01*
Y102499D02*
Y109999D01*
X4099Y102499D02*
X8399D01*
X46393Y29666D02*
Y37166D01*
X42093Y29666D02*
X46393D01*
X42093D02*
Y37166D01*
X46393D01*
X42485Y54665D02*
Y62165D01*
X46785D01*
Y54665D02*
Y62165D01*
X42485Y54665D02*
X46785D01*
X140001Y149375D02*
X147501D01*
X140001D02*
Y153675D01*
X147501D01*
Y149375D02*
Y153675D01*
X120518Y20335D02*
X124818D01*
X120518Y12835D02*
Y20335D01*
Y12835D02*
X124818D01*
Y20335D01*
D14*
X79971Y49705D02*
X80364D01*
D15*
X76034Y46555D02*
X78396D01*
Y46555D02*
Y48917D01*
X64222Y46555D02*
Y48917D01*
X64223Y46555D02*
X66585D01*
X64222Y59153D02*
X66585D01*
X64222Y56791D02*
Y59153D01*
X78396Y56791D02*
Y59153D01*
X76034D02*
X78396D01*
X54724Y137598D02*
X56693D01*
X55709Y136614D02*
Y138583D01*
D16*
X100984Y55315D02*
X102953Y55315D01*
Y55315D02*
Y57284D01*
X92716Y55315D02*
X94685Y55315D01*
X92716Y55315D02*
Y57284D01*
X100984Y65551D02*
X102953Y65551D01*
Y63583D02*
Y65551D01*
X92716Y65551D02*
X94685Y65551D01*
X92716Y63583D02*
Y65551D01*
D17*
X158342Y151525D02*
D03*
X158243Y143651D02*
D03*
D18*
X124774Y103743D02*
D03*
X124656Y115062D02*
D03*
M02*
