G04*
G04 #@! TF.GenerationSoftware,Altium Limited,Altium Designer,24.9.1 (31)*
G04*
G04 Layer_Physical_Order=2*
G04 Layer_Color=32768*
%FSLAX25Y25*%
%MOIN*%
G70*
G04*
G04 #@! TF.SameCoordinates,25C74C4A-671D-483D-B12C-01953B9F8915*
G04*
G04*
G04 #@! TF.FilePolarity,Negative*
G04*
G01*
G75*
%ADD122C,0.04000*%
%AMTHOVALD123*
21,1,0.04724,0.08362,0,0,360.0*
1,1,0.08362,-0.02362,0.00000*
1,1,0.08362,0.02362,0.00000*
21,0,0.04724,0.06362,0,0,360.0*
1,0,0.06362,-0.02362,0.00000*
1,0,0.06362,0.02362,0.00000*
4,0,4,-0.01655,-0.00707,-0.04612,-0.03664,-0.06026,-0.02249,-0.03069,0.00707,-0.01655,-0.00707,0.0*
4,0,4,0.03069,-0.00707,0.06026,0.02249,0.04612,0.03664,0.01655,0.00707,0.03069,-0.00707,0.0*
4,0,4,-0.03069,-0.00707,-0.06026,0.02249,-0.04612,0.03664,-0.01655,0.00707,-0.03069,-0.00707,0.0*
4,0,4,0.01655,-0.00707,0.04612,-0.03664,0.06026,-0.02249,0.03069,0.00707,0.01655,-0.00707,0.0*
%
%ADD123THOVALD123*%

%AMTHOVALD124*
21,1,0.03150,0.08362,0,0,360.0*
1,1,0.08362,-0.01575,0.00000*
1,1,0.08362,0.01575,0.00000*
21,0,0.03150,0.06362,0,0,360.0*
1,0,0.06362,-0.01575,0.00000*
1,0,0.06362,0.01575,0.00000*
4,0,4,-0.00868,-0.00707,-0.03824,-0.03664,-0.05238,-0.02249,-0.02282,0.00707,-0.00868,-0.00707,0.0*
4,0,4,0.02282,-0.00707,0.05238,0.02249,0.03824,0.03664,0.00868,0.00707,0.02282,-0.00707,0.0*
4,0,4,-0.02282,-0.00707,-0.05238,0.02249,-0.03824,0.03664,-0.00868,0.00707,-0.02282,-0.00707,0.0*
4,0,4,0.00868,-0.00707,0.03824,-0.03664,0.05238,-0.02249,0.02282,0.00707,0.00868,-0.00707,0.0*
%
%ADD124THOVALD124*%

%ADD125C,0.08535*%
%ADD126C,0.12661*%
G04:AMPARAMS|DCode=127|XSize=105.276mil|YSize=105.276mil|CornerRadius=0mil|HoleSize=0mil|Usage=FLASHONLY|Rotation=0.000|XOffset=0mil|YOffset=0mil|HoleType=Round|Shape=Relief|Width=20mil|Gap=10mil|Entries=4|*
%AMTHD127*
7,0,0,0.10528,0.08528,0.02000,45*
%
%ADD127THD127*%
%ADD128C,0.08528*%
%ADD129C,0.08000*%
G04:AMPARAMS|DCode=130|XSize=100mil|YSize=100mil|CornerRadius=0mil|HoleSize=0mil|Usage=FLASHONLY|Rotation=0.000|XOffset=0mil|YOffset=0mil|HoleType=Round|Shape=Relief|Width=20mil|Gap=10mil|Entries=4|*
%AMTHD130*
7,0,0,0.10000,0.08000,0.02000,45*
%
%ADD130THD130*%
%ADD131C,0.06756*%
%ADD132C,0.05200*%
D122*
X179134Y0D02*
G03*
X190945Y11811I0J11811D01*
G01*
Y147638D02*
G03*
X179134Y159449I-11811J0D01*
G01*
X11811D02*
G03*
X0Y147638I0J-11811D01*
G01*
Y11811D02*
G03*
X11811Y0I11811J0D01*
G01*
X179134D01*
X190945Y11811D02*
Y147638D01*
X11811Y159449D02*
X179134D01*
X0Y11811D02*
Y147638D01*
D123*
X5720Y67177D02*
D03*
Y33161D02*
D03*
D124*
X21468Y67177D02*
D03*
Y33161D02*
D03*
D125*
X167323Y147638D02*
D03*
X23622Y11811D02*
D03*
D126*
X11811Y147638D02*
D03*
Y11811D02*
D03*
X179134D02*
D03*
Y147638D02*
D03*
D127*
X151673Y128642D02*
D03*
D128*
Y108957D02*
D03*
Y118799D02*
D03*
D129*
X166339Y7874D02*
D03*
X146339D02*
D03*
X136339D02*
D03*
D130*
X156339D02*
D03*
D131*
X38386Y133957D02*
D03*
X30512D02*
D03*
D132*
X22638Y125984D02*
D03*
X73327Y41634D02*
D03*
X82579Y64567D02*
D03*
X87500Y61910D02*
D03*
X172244Y93701D02*
D03*
X168996D02*
D03*
X166535Y74114D02*
D03*
X95472D02*
D03*
X16929Y94488D02*
D03*
X110236Y67323D02*
D03*
Y71653D02*
D03*
X115748Y67323D02*
D03*
X136811Y75394D02*
D03*
X70866Y71850D02*
D03*
X127953Y14764D02*
D03*
X105512Y122835D02*
D03*
X76772Y71850D02*
D03*
X64961Y76772D02*
D03*
X31102Y73622D02*
D03*
X59055Y71850D02*
D03*
Y76772D02*
D03*
X70866D02*
D03*
X76772D02*
D03*
X64961Y71850D02*
D03*
X158640Y72782D02*
D03*
X155905Y76968D02*
D03*
X77751Y16255D02*
D03*
X75689Y131988D02*
D03*
X99114Y123425D02*
D03*
M02*
