G04*
G04 #@! TF.GenerationSoftware,Altium Limited,Altium Designer,24.9.1 (31)*
G04*
G04 Layer_Color=8421504*
%FSLAX25Y25*%
%MOIN*%
G70*
G04*
G04 #@! TF.SameCoordinates,25C74C4A-671D-483D-B12C-01953B9F8915*
G04*
G04*
G04 #@! TF.FilePolarity,Positive*
G04*
G01*
G75*
%ADD19R,0.02084X0.01198*%
%ADD20R,0.02084X0.01198*%
%ADD21R,0.01198X0.02084*%
%ADD22R,0.01198X0.02084*%
%ADD23R,0.05689X0.04016*%
%ADD24R,0.01772X0.01339*%
%ADD25R,0.01772X0.01339*%
%ADD26R,0.04724X0.04724*%
%ADD27R,0.03150X0.01575*%
%ADD28R,0.01575X0.03150*%
%ADD29R,0.03150X0.03150*%
%ADD30R,0.04528X0.02362*%
%ADD31R,0.04528X0.01181*%
%ADD32R,0.03583X0.04803*%
%ADD33R,0.02362X0.02756*%
%ADD34R,0.02756X0.02362*%
%ADD35R,0.01378X0.02362*%
%ADD36R,0.02362X0.01378*%
G04:AMPARAMS|DCode=37|XSize=35.43mil|YSize=68.9mil|CornerRadius=1.95mil|HoleSize=0mil|Usage=FLASHONLY|Rotation=90.000|XOffset=0mil|YOffset=0mil|HoleType=Round|Shape=RoundedRectangle|*
%AMROUNDEDRECTD37*
21,1,0.03543,0.06500,0,0,90.0*
21,1,0.03154,0.06890,0,0,90.0*
1,1,0.00390,0.03250,0.01577*
1,1,0.00390,0.03250,-0.01577*
1,1,0.00390,-0.03250,-0.01577*
1,1,0.00390,-0.03250,0.01577*
%
%ADD37ROUNDEDRECTD37*%
G04:AMPARAMS|DCode=38|XSize=125.98mil|YSize=68.9mil|CornerRadius=2.07mil|HoleSize=0mil|Usage=FLASHONLY|Rotation=90.000|XOffset=0mil|YOffset=0mil|HoleType=Round|Shape=RoundedRectangle|*
%AMROUNDEDRECTD38*
21,1,0.12598,0.06476,0,0,90.0*
21,1,0.12185,0.06890,0,0,90.0*
1,1,0.00413,0.03238,0.06093*
1,1,0.00413,0.03238,-0.06093*
1,1,0.00413,-0.03238,-0.06093*
1,1,0.00413,-0.03238,0.06093*
%
%ADD38ROUNDEDRECTD38*%
G04:AMPARAMS|DCode=39|XSize=9.84mil|YSize=23.62mil|CornerRadius=1.97mil|HoleSize=0mil|Usage=FLASHONLY|Rotation=180.000|XOffset=0mil|YOffset=0mil|HoleType=Round|Shape=RoundedRectangle|*
%AMROUNDEDRECTD39*
21,1,0.00984,0.01968,0,0,180.0*
21,1,0.00591,0.02362,0,0,180.0*
1,1,0.00394,-0.00295,0.00984*
1,1,0.00394,0.00295,0.00984*
1,1,0.00394,0.00295,-0.00984*
1,1,0.00394,-0.00295,-0.00984*
%
%ADD39ROUNDEDRECTD39*%
G04:AMPARAMS|DCode=40|XSize=25.2mil|YSize=28.35mil|CornerRadius=3.15mil|HoleSize=0mil|Usage=FLASHONLY|Rotation=90.000|XOffset=0mil|YOffset=0mil|HoleType=Round|Shape=RoundedRectangle|*
%AMROUNDEDRECTD40*
21,1,0.02520,0.02205,0,0,90.0*
21,1,0.01890,0.02835,0,0,90.0*
1,1,0.00630,0.01102,0.00945*
1,1,0.00630,0.01102,-0.00945*
1,1,0.00630,-0.01102,-0.00945*
1,1,0.00630,-0.01102,0.00945*
%
%ADD40ROUNDEDRECTD40*%
%ADD41R,0.04166X0.03591*%
%ADD42R,0.02126X0.02362*%
%ADD43R,0.00984X0.02756*%
%ADD44R,0.00984X0.03150*%
%ADD45R,0.06102X0.05118*%
%ADD46R,0.02362X0.02126*%
G04:AMPARAMS|DCode=47|XSize=25.2mil|YSize=28.35mil|CornerRadius=3.15mil|HoleSize=0mil|Usage=FLASHONLY|Rotation=180.000|XOffset=0mil|YOffset=0mil|HoleType=Round|Shape=RoundedRectangle|*
%AMROUNDEDRECTD47*
21,1,0.02520,0.02205,0,0,180.0*
21,1,0.01890,0.02835,0,0,180.0*
1,1,0.00630,-0.00945,0.01102*
1,1,0.00630,0.00945,0.01102*
1,1,0.00630,0.00945,-0.01102*
1,1,0.00630,-0.00945,-0.01102*
%
%ADD47ROUNDEDRECTD47*%
%ADD48R,0.07284X0.12795*%
%ADD49R,0.03858X0.13386*%
%ADD50R,0.01280X0.01280*%
%ADD51R,0.03347X0.03543*%
%ADD52R,0.06127X0.05727*%
%ADD53R,0.05727X0.06127*%
%ADD54R,0.03543X0.03347*%
%ADD55R,0.03543X0.06102*%
%ADD56R,0.02362X0.03937*%
G36*
X107987Y133395D02*
X108043Y133340D01*
X108073Y133267D01*
Y133228D01*
Y132441D01*
Y132402D01*
X108043Y132329D01*
X107987Y132274D01*
X107915Y132244D01*
X106164D01*
X106091Y132274D01*
X106036Y132329D01*
X106006Y132402D01*
Y132441D01*
Y133228D01*
Y133267D01*
X106036Y133340D01*
X106091Y133395D01*
X106164Y133425D01*
X107915D01*
X107987Y133395D01*
D02*
G37*
G36*
X105330D02*
X105385Y133340D01*
X105415Y133267D01*
Y133228D01*
Y132441D01*
Y132402D01*
X105385Y132329D01*
X105330Y132274D01*
X105258Y132244D01*
X103506D01*
X103434Y132274D01*
X103378Y132329D01*
X103348Y132402D01*
Y132441D01*
Y133228D01*
Y133267D01*
X103378Y133340D01*
X103434Y133395D01*
X103506Y133425D01*
X105258D01*
X105330Y133395D01*
D02*
G37*
G36*
X101686D02*
X101742Y133340D01*
X101772Y133267D01*
Y133228D01*
Y132441D01*
Y132402D01*
X101742Y132329D01*
X101686Y132274D01*
X101614Y132244D01*
X98780D01*
X98707Y132274D01*
X98652Y132329D01*
X98622Y132402D01*
Y132441D01*
Y133228D01*
Y133267D01*
X98652Y133340D01*
X98707Y133395D01*
X98780Y133425D01*
X101614D01*
X101686Y133395D01*
D02*
G37*
G36*
X107946Y131230D02*
X108001Y131175D01*
X108031Y131102D01*
Y131063D01*
Y130472D01*
Y130433D01*
X108001Y130361D01*
X107946Y130306D01*
X107874Y130276D01*
X105591D01*
X105518Y130306D01*
X105463Y130361D01*
X105433Y130433D01*
Y130472D01*
Y131063D01*
Y131102D01*
X105463Y131175D01*
X105518Y131230D01*
X105591Y131260D01*
X107874D01*
X107946Y131230D01*
D02*
G37*
G36*
X104560D02*
X104616Y131175D01*
X104646Y131102D01*
Y131063D01*
Y130472D01*
Y130433D01*
X104616Y130361D01*
X104560Y130306D01*
X104488Y130276D01*
X102205D01*
X102133Y130306D01*
X102077Y130361D01*
X102047Y130433D01*
Y130472D01*
Y131063D01*
Y131102D01*
X102077Y131175D01*
X102133Y131230D01*
X102205Y131260D01*
X104488D01*
X104560Y131230D01*
D02*
G37*
G36*
X101174D02*
X101230Y131175D01*
X101260Y131102D01*
Y131063D01*
Y130472D01*
Y130433D01*
X101230Y130361D01*
X101174Y130306D01*
X101102Y130276D01*
X98819D01*
X98747Y130306D01*
X98691Y130361D01*
X98661Y130433D01*
Y130472D01*
Y131063D01*
Y131102D01*
X98691Y131175D01*
X98747Y131230D01*
X98819Y131260D01*
X101102D01*
X101174Y131230D01*
D02*
G37*
G36*
X169291Y59842D02*
Y57480D01*
X164567D01*
Y62205D01*
X166929D01*
X169291Y59842D01*
D02*
G37*
D19*
X75884Y49902D02*
D03*
X75887Y55807D02*
D03*
X66734D02*
D03*
X66731Y49902D02*
D03*
D20*
X75886Y51871D02*
D03*
Y53839D02*
D03*
X66732D02*
D03*
Y51871D02*
D03*
D21*
X73277Y56447D02*
D03*
X69341Y56446D02*
D03*
Y49261D02*
D03*
X73277Y49263D02*
D03*
D22*
X71309Y56447D02*
D03*
Y49262D02*
D03*
D23*
X33946Y80866D02*
D03*
X33946Y85866D02*
D03*
X33947Y96614D02*
D03*
X33947Y101614D02*
D03*
D24*
X27264Y87205D02*
D03*
X27264Y82087D02*
D03*
X27264Y79527D02*
D03*
X27264Y84646D02*
D03*
X27264Y102953D02*
D03*
X27264Y97835D02*
D03*
X27264Y95276D02*
D03*
X27264Y100394D02*
D03*
D25*
X38563Y79528D02*
D03*
X38563Y82087D02*
D03*
Y84646D02*
D03*
X38563Y87205D02*
D03*
X38563Y95275D02*
D03*
X38564Y97835D02*
D03*
Y100394D02*
D03*
X38563Y102952D02*
D03*
D26*
X153937Y46850D02*
D03*
X166929D02*
D03*
Y53347D02*
D03*
X153937D02*
D03*
Y59842D02*
D03*
X160433Y46850D02*
D03*
Y53347D02*
D03*
Y59842D02*
D03*
D27*
X187992Y76772D02*
D03*
Y73425D02*
D03*
Y70079D02*
D03*
Y66732D02*
D03*
Y63386D02*
D03*
Y60039D02*
D03*
Y56693D02*
D03*
Y53347D02*
D03*
Y50000D02*
D03*
Y46654D02*
D03*
Y43307D02*
D03*
Y39961D02*
D03*
Y36614D02*
D03*
Y33268D02*
D03*
Y29921D02*
D03*
X132874D02*
D03*
Y33268D02*
D03*
Y36614D02*
D03*
Y39961D02*
D03*
Y43307D02*
D03*
Y46654D02*
D03*
Y50000D02*
D03*
Y53347D02*
D03*
Y56693D02*
D03*
Y60039D02*
D03*
Y63386D02*
D03*
Y66732D02*
D03*
Y70079D02*
D03*
Y73425D02*
D03*
Y76772D02*
D03*
D28*
X183858Y25787D02*
D03*
X180512D02*
D03*
X177165D02*
D03*
X173819D02*
D03*
X170472D02*
D03*
X167126D02*
D03*
X163779D02*
D03*
X160433D02*
D03*
X157087D02*
D03*
X153740D02*
D03*
X150394D02*
D03*
X147047D02*
D03*
X143701D02*
D03*
X140354D02*
D03*
X137008D02*
D03*
Y80905D02*
D03*
X140354D02*
D03*
X143701D02*
D03*
X147047D02*
D03*
X150394D02*
D03*
X153740D02*
D03*
X157087D02*
D03*
X160433D02*
D03*
X163779D02*
D03*
X167126D02*
D03*
X170472D02*
D03*
X173819D02*
D03*
X177165D02*
D03*
X180512D02*
D03*
X183858D02*
D03*
D29*
X132874Y25787D02*
D03*
X187992D02*
D03*
X132874Y80905D02*
D03*
X187992D02*
D03*
D30*
X23732Y37571D02*
D03*
Y62768D02*
D03*
Y59618D02*
D03*
Y40720D02*
D03*
D31*
Y43279D02*
D03*
Y45248D02*
D03*
Y47216D02*
D03*
Y49185D02*
D03*
Y51153D02*
D03*
Y53122D02*
D03*
Y55090D02*
D03*
Y57059D02*
D03*
D32*
X58799Y104331D02*
D03*
X45925D02*
D03*
D33*
X151772Y151575D02*
D03*
X155512D02*
D03*
X155413Y143701D02*
D03*
X151673D02*
D03*
D34*
X124724Y97173D02*
D03*
Y100913D02*
D03*
X124606Y112232D02*
D03*
Y108492D02*
D03*
D35*
X40453Y71161D02*
D03*
X43012D02*
D03*
D36*
X37591Y48890D02*
D03*
Y51449D02*
D03*
Y40390D02*
D03*
Y42949D02*
D03*
X38502Y119746D02*
D03*
Y117187D02*
D03*
D37*
X72638Y100000D02*
D03*
Y90945D02*
D03*
Y81890D02*
D03*
D38*
X97244Y90945D02*
D03*
D39*
X100394Y127165D02*
D03*
X102362D02*
D03*
X104331D02*
D03*
X106299D02*
D03*
D40*
X113641Y130408D02*
D03*
Y126944D02*
D03*
X65748Y99075D02*
D03*
Y95610D02*
D03*
X59252Y85689D02*
D03*
Y82224D02*
D03*
X65059Y82224D02*
D03*
Y85689D02*
D03*
X116713Y14803D02*
D03*
Y18268D02*
D03*
X70374Y16535D02*
D03*
Y13071D02*
D03*
D41*
X18413Y117323D02*
D03*
X13083D02*
D03*
X114476Y110433D02*
D03*
X109146D02*
D03*
D42*
X17449Y127165D02*
D03*
X14047D02*
D03*
X145402Y143701D02*
D03*
X142000D02*
D03*
X104189Y51476D02*
D03*
X100787D02*
D03*
X142000Y151575D02*
D03*
X145402D02*
D03*
D43*
X16929Y103923D02*
D03*
Y108675D02*
D03*
X14961Y103923D02*
D03*
X12992Y108675D02*
D03*
X14961D02*
D03*
D44*
X12992Y104118D02*
D03*
D45*
X78248Y23622D02*
D03*
X109547D02*
D03*
X78248Y5906D02*
D03*
X109547D02*
D03*
X62894Y6102D02*
D03*
X31594D02*
D03*
X62894Y23819D02*
D03*
X31594D02*
D03*
D46*
X57677Y54949D02*
D03*
Y51547D02*
D03*
X85630Y51449D02*
D03*
Y54850D02*
D03*
X110039Y62331D02*
D03*
Y58929D02*
D03*
X130512Y112063D02*
D03*
Y108661D02*
D03*
X130807Y100449D02*
D03*
Y97047D02*
D03*
X115748Y58929D02*
D03*
Y62331D02*
D03*
X114173Y74929D02*
D03*
Y71528D02*
D03*
X6299Y108000D02*
D03*
Y104598D02*
D03*
X44193Y31665D02*
D03*
Y35067D02*
D03*
X44685Y60165D02*
D03*
Y56764D02*
D03*
X122618Y18236D02*
D03*
Y14835D02*
D03*
D47*
X72992Y66732D02*
D03*
X69528D02*
D03*
X176289Y89802D02*
D03*
X172824D02*
D03*
X168513D02*
D03*
X165048D02*
D03*
X48661Y71161D02*
D03*
X52126D02*
D03*
X98976Y70079D02*
D03*
X95512D02*
D03*
D48*
X62008Y135531D02*
D03*
Y151476D02*
D03*
D49*
X92264Y124311D02*
D03*
X82933D02*
D03*
D50*
X94831Y61417D02*
D03*
Y59449D02*
D03*
X95866Y57429D02*
D03*
X97835D02*
D03*
X99803D02*
D03*
X100835Y59449D02*
D03*
X100839Y61417D02*
D03*
X99803Y63433D02*
D03*
X97835Y63435D02*
D03*
X95866Y63433D02*
D03*
D51*
X18406Y135433D02*
D03*
X12303D02*
D03*
X108661Y118209D02*
D03*
X114764D02*
D03*
X45472Y78839D02*
D03*
X51575D02*
D03*
D52*
X80801Y138790D02*
D03*
Y146080D02*
D03*
D53*
X99111Y152756D02*
D03*
X106401D02*
D03*
X99111Y141732D02*
D03*
X106401D02*
D03*
D54*
X101083Y111221D02*
D03*
Y117323D02*
D03*
D55*
X9551Y84845D02*
D03*
X19984D02*
D03*
D56*
X51673Y121653D02*
D03*
X55413Y112205D02*
D03*
X47933D02*
D03*
M02*
