M48
;Layer_Color=9474304
;FILE_FORMAT=2:5
INCH
;TYPE=PLATED
T01F00S00C0.01200
T03F00S00C0.02756
T04F00S00C0.04000
T05F00S00C0.04528
%
T01
X0544252Y0646102
X0562362
X0576437Y0648760
X0583814Y0656255
X0593957Y0645905
X0609754Y0645955
X0622697Y0650630
X0615512Y0694331
X0610787Y0703090
Y0706831
X0616299Y0707323
Y0711654
X0621811Y0707323
X0615709Y0725433
X0610787
Y0730354
X0615709
Y0735276
Y0740197
X0610787
Y0735276
X0622106Y0744331
X0602421Y0751221
X0605177Y0763425
X0611575Y0762835
X0597598Y0774843
Y0778780
X0581752Y0771988
X0570532Y0730551
X0566201Y0730650
X0565118Y0716772
Y0711850
X0571024
Y0716772
X0576929
Y0711850
X0582835
Y0716772
X0584114Y0704665
X0588642Y0704567
X0593563Y0701909
X0597008Y0695512
X0587854Y0695020
X0579390Y0681634
X0554291Y0676221
X0548091Y0680354
Y0691378
X0555079Y0695610
X0558228Y0706043
X0569941Y0703681
X0567382Y0700335
X0557638Y0723760
X0542579Y0714213
X0537165Y0713622
X0533657Y0706732
X0526535Y0713622
Y0717559
X0521614
Y0713622
X0516693
Y0717559
X0511772
Y0713622
Y0721496
Y0725433
X0522992Y0734488
X0528701Y0765984
X0513543Y0775433
X0543465Y0752205
X0534264Y0677516
X0601535Y0714114
X0642874Y0715394
X0638937Y0725630
X0664626Y0727894
X0661969Y0716968
X0664703Y0712782
X0672598Y0714114
X0666398Y0704468
X0663248Y0696693
Y0690098
X0669744
Y0696594
X0677224Y0693445
X0677323Y0686752
X0677421Y0675335
X0675157Y0671299
X0690118Y0669921
Y0673268
Y0676614
Y0679961
Y0683307
Y0686654
Y0690000
Y0693347
Y0696693
Y0700039
Y0703386
Y0706732
Y0710079
Y0713425
Y0716772
X0686575Y0716968
X0692776Y0731240
X0690020Y0734291
X0687657Y0736654
X0678307Y0733701
X0675059
X0677520Y0700039
X0655177Y0699449
X0655374Y0692953
Y0686358
X0666299Y0682618
X0633130Y0668150
X0634016Y0654764
X0691890Y0658799
X0633032Y0759094
X0667480Y0781732
Y0793543
X0597598Y0794528
X0593661
X0589724
X0585787
X0593661Y0790590
X0597598
Y0786654
X0593661
X0597598Y0782717
X0573976Y0787638
Y0791575
Y0795512
X0561181
Y0791575
Y0787638
T03
X0536575Y0773957
X0544449
T04
X0642402Y0647874
X0652402
X0662402
X0672402
T05
X0657736Y0748957
Y0758799
Y0768642
M30
